<svg width="20.000000" height="20.000000" viewBox="0 0 20 20" fill="none" xmlns="http://www.w3.org/2000/svg" xmlns:xlink="http://www.w3.org/1999/xlink">
	<desc>
			Created with Pixso.
	</desc>
	<defs/>
	<path id="Vector" d="M16 15.5C16.53 15.5 17.03 15.71 17.41 16.08C17.78 16.46 18 16.96 18 17.5C18 18.03 17.78 18.53 17.41 18.91C17.03 19.28 16.53 19.5 16 19.5C15.46 19.5 14.96 19.28 14.58 18.91C14.21 18.53 14 18.03 14 17.5C14 16.39 14.88 15.5 16 15.5ZM0 -0.5L3.27 -0.5L4.2 1.5L19 1.5C19.26 1.5 19.51 1.6 19.7 1.79C19.89 1.98 20 2.23 20 2.5C20 2.66 19.95 2.83 19.87 3L16.29 9.47C15.96 10.08 15.3 10.5 14.55 10.5L7.1 10.5L6.19 12.12L6.16 12.25C6.16 12.31 6.19 12.37 6.24 12.42C6.29 12.47 6.35 12.5 6.41 12.5L18 12.5L18 14.5L6 14.5C5.46 14.5 4.96 14.28 4.58 13.91C4.21 13.53 4 13.03 4 12.5C4 12.14 4.09 11.81 4.23 11.54L5.6 9.08L2 1.5L0 1.5L0 -0.5ZM6 15.5C6.53 15.5 7.03 15.71 7.41 16.08C7.78 16.46 8 16.96 8 17.5C8 18.03 7.78 18.53 7.41 18.91C7.03 19.28 6.53 19.5 6 19.5C5.46 19.5 4.96 19.28 4.58 18.91C4.21 18.53 4 18.03 4 17.5C4 16.39 4.88 15.5 6 15.5ZM15 8.5L17.78 3.5L5.13 3.5L7.5 8.5L15 8.5Z" fill="#191411" fill-opacity="1.000000" fill-rule="nonzero"/>
</svg>
